<svg width="400" height="113.334" fill="none" xmlns="http://www.w3.org/2000/svg" viewBox="0 0 400 113.334"><path d="M17.146 26.074H0.886V87.4h16.26z" fill="black"/><path d="M9.016 0a9.02 9.02 0 0 0 0 18.03 9.02 9.02 0 0 0 0 -18.03" fill="black"/><path d="M145.85 70.726h-14.806a14.4 14.4 0 0 1 -14.396 -14.4 14.4 14.4 0 0 1 14.4 -14.4h14.484a42.6 42.6 0 0 1 10.144 -16.26H131.24a30.666 30.666 0 0 0 -30.66 30.66 30.666 30.666 0 0 0 30.66 30.66h25.384a42.6 42.6 0 0 1 -10.774 -16.26" fill="black"/><path d="M186.01 24.816c-17.376 0 -31.474 14.09 -31.474 31.466s14.09 31.47 31.474 31.47 31.466 -14.086 31.466 -31.47a31.466 31.466 0 0 0 -31.466 -31.466" fill="black"/><path d="M395.854 26.074h-16.264V87.4h16.264z" fill="black"/><path d="M387.726 18.03A9.014 9.014 0 1 0 387.724 0a9.014 9.014 0 0 0 0.004 18.03" fill="black"/><path d="M83.946 31.534q-6.334 -6.706 -16.386 -6.706c-8.566 0 -14.894 3.474 -19.234 10.41l-0.006 -0.016a42 42 0 0 1 -4.634 -9.146H32.06v61.32h16.264V51.386c0 -4.526 1.6 -8.266 4.384 -10.686 2.184 -1.894 5.09 -2.98 8.53 -2.98 7.574 0 12.786 5.34 12.786 13.656v36.006h16.14V49.026c0 -7.08 -2.114 -12.914 -6.204 -17.51z" fill="black"/><path d="M358.864 31.534q-6.336 -6.706 -16.386 -6.706c-8.564 0 -14.894 3.474 -19.234 10.41l-0.006 -0.016a42 42 0 0 1 -4.634 -9.146h-11.634v61.32h16.266V51.386c0 -4.526 1.6 -8.266 4.384 -10.686 2.184 -1.894 5.09 -2.98 8.526 -2.98 7.576 0 12.79 5.34 12.79 13.656v36.006h16.14V49.026c0 -7.08 -2.114 -12.914 -6.206 -17.51z" fill="black"/><path d="M280.846 26.074v-0.016q-0.004 0 -0.01 0.016a42 42 0 0 1 -4.656 9.184c-8.74 -11.384 -21.6 -10.43 -21.6 -10.43 -8.066 0 -14.776 2.856 -19.994 8.44 -5.336 5.71 -7.944 12.914 -7.944 21.6 0 0.02 -0.716 12.12 7.944 21.6 5.216 5.714 11.924 8.566 19.994 8.566 0.566 0 13.074 0.936 21.6 -10.43v9.69c0 9.314 -6.834 16.136 -16.264 16.136 -7.326 0 -13.654 -4.1 -15.27 -9.934h-15.15c1.114 6.584 4.72 12.046 10.554 16.386 5.834 4.346 12.666 6.45 20.486 6.45 9.316 0 16.88 -2.854 22.97 -8.44q8.934 -8.566 8.934 -21.6V26.074zm-20.134 45.994a17.22 17.22 0 0 1 -18.876 -18.876c0.794 -8.054 7.306 -14.566 15.366 -15.36a17.216 17.216 0 0 1 18.88 18.876c-0.796 8.054 -7.31 14.566 -15.36 15.36z" fill="black"/></svg>