<svg width="120" height="34" fill="none" xmlns="http://www.w3.org/2000/svg" data-testid="incogni-header-logo"><path d="M5.144 7.822H.266V26.22h4.878V7.822ZM2.705 0a2.706 2.706 0 0 0 0 5.409 2.706 2.706 0 0 0 0-5.409ZM43.755 21.218h-4.442a4.318 4.318 0 0 1-4.319-4.32 4.318 4.318 0 0 1 4.32-4.32h4.345A12.835 12.835 0 0 1 46.703 7.7h-7.331a9.198 9.198 0 0 0-9.198 9.198 9.198 9.198 0 0 0 9.198 9.198h7.615a12.834 12.834 0 0 1-3.232-4.878Z" fill="#fff"/><path d="M55.803 7.445c-5.213 0-9.442 4.227-9.442 9.44 0 5.212 4.227 9.441 9.442 9.441 5.216 0 9.44-4.226 9.44-9.441a9.438 9.438 0 0 0-9.44-9.44ZM118.756 7.822h-4.879V26.22h4.879V7.822ZM116.318 5.409A2.704 2.704 0 1 0 116.317 0a2.704 2.704 0 0 0 .001 5.409ZM25.184 9.46c-1.267-1.341-2.906-2.012-4.916-2.012-2.57 0-4.468 1.042-5.77 3.123l-.002-.005a12.597 12.597 0 0 1-1.39-2.744H9.617v18.396h4.879V15.415c0-1.357.48-2.479 1.315-3.205.655-.568 1.527-.894 2.559-.894 2.272 0 3.836 1.602 3.836 4.097v10.802h4.842V14.707c0-2.123-.634-3.873-1.861-5.252l-.003.005ZM107.659 9.46c-1.268-1.341-2.906-2.012-4.916-2.012-2.569 0-4.468 1.042-5.77 3.123l-.002-.005a12.592 12.592 0 0 1-1.39-2.744h-3.49v18.396h4.88V15.415c0-1.357.48-2.479 1.315-3.205.655-.568 1.527-.894 2.558-.894 2.273 0 3.837 1.602 3.837 4.097v10.802h4.842V14.707c0-2.123-.634-3.873-1.862-5.252l-.002.005ZM84.254 7.822v-.005s-.003.002-.003.005c-.35.97-.821 1.896-1.397 2.755-2.622-3.415-6.48-3.129-6.48-3.129-2.42 0-4.433.857-5.998 2.532-1.601 1.713-2.383 3.874-2.383 6.48 0 .006-.215 3.636 2.383 6.48 1.565 1.714 3.577 2.57 5.998 2.57.17 0 3.922.281 6.48-3.129v2.907c0 2.794-2.05 4.841-4.879 4.841-2.198 0-4.096-1.23-4.581-2.98h-4.545c.334 1.975 1.416 3.614 3.166 4.916 1.75 1.304 3.8 1.935 6.146 1.935 2.795 0 5.064-.856 6.891-2.532 1.787-1.713 2.68-3.874 2.68-6.48V7.822h-3.478Zm-6.04 13.798a5.166 5.166 0 0 1-5.663-5.663c.238-2.416 2.192-4.37 4.61-4.608a5.165 5.165 0 0 1 5.664 5.663c-.239 2.416-2.193 4.37-4.608 4.608h-.003Z" fill="#fff"/></svg>