<svg xmlns="http://www.w3.org/2000/svg" width="400" height="95.522" fill="none" viewBox="0 0 400 95.522"><g clip-path="url(#logo-regular_svg__a)"><path fill="#191A1C" d="m161.839 67.284 -18.704 -28.131v28.125h-8.316V26.499h9.612l17.669 26.612V26.501h8.313V67.284zm13.525 -13.86c0 -8.278 6.806 -14.582 15.224 -14.582 8.364 0 15.069 6.149 15.069 14.427 0 8.385 -6.806 14.633 -15.17 14.633 -8.418 0 -15.122 -6.093 -15.122 -14.475Zm8.313 -0.101c0 4.215 3.066 7.134 6.86 7.134 3.791 0 6.806 -2.916 6.806 -7.134 0 -4.167 -3.066 -7.087 -6.86 -7.087 -3.791 0 -6.806 2.919 -6.806 7.087m41.851 -13.857v7.97c-1.09 -0.209 -2.233 -0.209 -2.597 -0.209 -3.896 0 -6.597 2.707 -6.597 7.866v12.185h-7.949v-27.809h7.69v4.06h0.101c1.507 -3.176 4.316 -4.376 7.173 -4.376 0.624 0 1.609 0.158 2.179 0.313m23.412 27.812v-3.54h-0.101c-2.597 3.803 -6.755 4.063 -8.627 4.063 -8.054 0 -13.2 -6.979 -13.2 -14.478 0 -7.033 5.355 -14.376 13.304 -14.376 1.612 0 5.457 0.313 8.313 3.699h0.104v-17.761h8.054v42.397h-7.851Zm0 -13.955c0 -4.167 -3.063 -7.033 -6.86 -7.033 -3.791 0 -6.854 2.866 -6.854 7.033 0 4.215 3.063 7.134 6.857 7.134 3.791 0 6.863 -2.916 6.863 -7.134zm145.442 -9.504a5.433 5.433 0 0 0 3.961 -1.531 5.463 5.463 0 0 0 1.227 -6.045 5.463 5.463 0 0 0 -3.054 -2.958 5.373 5.373 0 0 0 -2.134 -0.361c-2.982 0 -5.415 2.442 -5.415 5.448s2.433 5.448 5.415 5.448m0 -9.881c2.433 0 4.358 1.994 4.358 4.433s-1.925 4.412 -4.358 4.412c-2.415 0 -4.319 -1.973 -4.319 -4.412s1.904 -4.43 4.319 -4.43zm-0.833 5.307h0.913l1.134 2.239h1.4l-1.299 -2.525a1.851 1.851 0 0 0 1.075 -1.725c0 -0.997 -0.609 -1.994 -2.17 -1.994h-2.31v6.242h1.257zm1.946 -1.991c0 0.364 -0.224 0.83 -0.994 0.83h-0.952V36.418h0.952c0.833 0 0.994 0.469 0.994 0.836m-99.49 1.042c0 -9.101 -6.728 -13.761 -15.313 -13.761h-15.919v42.925h8.863v-15.128h6.725c8.97 0 15.645 -4.549 15.645 -14.036m-8.919 0.218c0 4.003 -3.606 5.537 -7.11 5.537h-6.34V32.925h6.287c3.666 0 7.164 1.424 7.164 5.588m21.716 29.499c3.173 0 6.507 -1.099 8.699 -4.224l0.107 0.054V67.463h7.875v-18.143c0 -7.899 -5.304 -11.788 -12.579 -11.788 -6.125 0 -12.143 2.961 -13.125 9.212l7.493 1.701c0.657 -2.472 2.624 -4.006 5.248 -4.006 3.066 0 4.597 1.755 4.597 3.618 0 1.206 -0.71 2.03 -2.299 2.03h-2.842c-5.69 0 -12.854 1.97 -12.854 8.991v0.218c0 5.43 4.594 8.716 9.681 8.716m2.46 -6.251c-1.803 0 -3.552 -0.878 -3.552 -2.961 0 -2.304 2.516 -3.343 4.266 -3.343h5.087v0.657c0 2.961 -2.024 5.648 -5.8 5.648m32.272 6.358c7.985 0 11.869 -4.716 11.869 -9.701 0 -6.519 -4.958 -8.582 -10.379 -9.31l-1.651 -0.2c-2.361 -0.34 -3.451 -0.907 -3.451 -2.445 0 -1.313 1.26 -2.412 3.337 -2.412 2.46 0 3.83 1.481 4.266 3.454l7.382 -1.86c-0.597 -3.293 -3.934 -8.17 -11.537 -8.17 -6.179 0 -11.54 4.054 -11.54 9.373 0 6.191 4.385 8.23 9.46 9.096l1.096 0.17c3.063 0.439 4.651 0.985 4.651 2.851 0 1.096 -0.985 2.522 -3.501 2.522 -2.845 0 -4.487 -1.863 -4.866 -4l-7.442 1.97c0.493 3.125 3.719 8.663 12.307 8.663m28.606 0c-8.588 0 -11.815 -5.534 -12.31 -8.663l7.442 -1.97c0.382 2.137 2.024 4 4.869 4 2.516 0 3.499 -1.424 3.499 -2.525 0 -1.743 -1.394 -2.334 -4.093 -2.761l-1.654 -0.257c-5.075 -0.866 -9.46 -2.904 -9.46 -9.096 0 -5.313 5.361 -9.373 11.54 -9.373 7.606 0 10.94 4.878 11.543 8.167l-7.382 1.863c-0.439 -1.97 -1.809 -3.454 -4.269 -3.454 -2.078 0 -3.337 1.096 -3.337 2.412 0 1.537 1.09 2.104 3.448 2.448l1.093 0.128c5.636 0.663 10.937 2.636 10.937 9.376 0 4.988 -3.884 9.701 -11.866 9.701Z"/><path fill="#00CFB6" d="M0 55.033a53.433 53.433 0 0 0 10.149 31.433l25.588 -41.74 9.224 15.833 -2.534 -11.779 10.884 -18.46 17.597 30.239 -2.51 -11.663 2.475 -4.191 25.603 41.761a53.433 53.433 0 0 0 10.149 -31.433C106.624 25.463 82.755 1.493 53.31 1.493 23.869 1.487 0 25.46 0 55.033"/></g><defs><clipPath id="logo-regular_svg__a"><path fill="#fff" d="M0 0h400v89.552H0z"/></clipPath></defs></svg>