<svg viewBox="0 0 400 180" xmlns="http://www.w3.org/2000/svg" width="400" height="180"><path fill="#000" d="M6.932 154.92a33.6 33.6 0 0 1 14.032 3.496l16.04 7.972a42.32 42.32 0 0 0 37.68 -0.028l15.828 -7.892a33.6 33.6 0 0 1 29.952 -0.012l10.008 4.98a55.84 55.84 0 0 0 49.52 0.092l10.528 -5.184a33.6 33.6 0 0 1 29.816 0.064l9.992 4.976A55.84 55.84 0 0 0 280 163.432l10.148 -5.032a33.6 33.6 0 0 1 12.136 -3.376l10.264 -21.5a55.84 55.84 0 0 0 -32.268 5.3l-10.148 5.032a33.6 33.6 0 0 1 -29.892 -0.028l-9.996 -4.976a55.84 55.84 0 0 0 -49.54 -0.108l-10.528 5.188a33.6 33.6 0 0 1 -29.804 -0.06l-10.012 -4.98a55.84 55.84 0 0 0 -49.756 0.024l-15.832 7.892a20.08 20.08 0 0 1 -17.88 0.012l-16.036 -7.968a55.8 55.8 0 0 0 -26.084 -5.816l2.164 21.884Zm310.776 12.284v-1.08c4.352 -7.404 16.496 -34.108 21.008 -45.216l1.088 -2.62 -26.908 -56.92c-5.76 -12.34 -7.936 -16.812 -11.512 -20.672v-0.92h40.908v0.92c-1.088 0.62 -1.864 2.78 -1.864 4.628 0 3.548 1.708 7.252 2.332 9.104l14.464 35.32h0.624l11.976 -31.312c1.712 -4.472 3.112 -9.72 3.112 -13.264 0 -2.468 -1.244 -4.012 -1.868 -4.472v-0.928H400v0.928c-2.956 4.472 -8.4 17.12 -12.756 27.456L346.324 167.2h-28.616ZM261.32 114.012v-0.928c2.96 -5.092 3.892 -8.328 3.892 -15.12V28.52c0 -5.36 -1.368 -10.424 -3.424 -12.94V14.64c8.132 -0.584 28.628 -9.008 34.652 -14.52l1.22 0.592c-1.44 4.36 -2.584 18.016 -2.584 25.544V96.12c0 6.016 1.244 11.724 3.888 17.12v0.776h-37.64Zm-45.968 -0.044v-0.924c2.956 -5.092 3.888 -8.328 3.888 -15.12v-34.552c0 -5.24 -1.088 -11.12 -3.424 -14.048v-0.928c7.56 -0.5 27.52 -7.908 32.512 -12.48l0.776 0.464v59.696c0 6.016 1.244 11.72 3.888 17.12v0.772zM249.104 24.08C244.3 28.36 226.616 36 218.312 37V12.92C225.74 11.092 243.812 3.524 249.104 0zM115.08 93.3c0 -14.192 11.512 -18.2 28 -20.36 12.288 -1.7 30.8 -3.548 30.8 -9.72 0 -5.4 -7.624 -7.712 -18.044 -7.712 -13.224 0 -24.42 3.7 -31.264 7.096v-20.52c10.888 -3.392 22.084 -5.088 38.108 -5.088 19.908 0 41.064 4.32 41.064 29.772v27.456c0 6.48 0.468 12.648 3.732 18.972v0.772h-33.6v-13.42c-4.352 7.096 -13.684 15.428 -29.396 15.428 -17.108 0 -29.4 -8.948 -29.4 -22.68Zm30.18 -3.24c0 6.94 4.508 9.408 10.884 9.408 6.536 0 13.844 -2.468 17.736 -6.016v-17.584c-3.736 3.24 -12.444 4.936 -19.132 5.864 -6.536 1.08 -9.488 3.7 -9.488 8.328m-93.62 25.76c-22.4 0 -36.16 -3.864 -49.384 -8.34L0 83.736l0.776 -0.312C13.376 90.828 33.6 94.84 49 94.84c16.644 0 23.332 -4.012 23.332 -10.028 0 -5.4 -7.62 -6.784 -13.532 -7.712l-24.108 -4.008C18.04 70.316 0 64.144 0 43.32c0 -24.836 26.132 -35.788 54.908 -35.788 17.576 0 35.152 2.624 46.04 8.024L92.4 36.224c-11.824 -5.86 -26.6 -8.64 -38.264 -8.64 -14.78 0 -20.536 3.86 -20.536 8.796 0 5.704 6.848 6.94 12.6 7.864l21.932 3.704c22.556 3.548 38.576 10.952 38.576 30.08 0 26.992 -27.064 37.792 -55.064 37.792Z"/></svg>